<svg id="date_time" data-name="date time" xmlns="http://www.w3.org/2000/svg" viewBox="0 0 44 44"><title>date-time_icon</title><polygon points="9.98 20.74 6.69 20.74 6.69 24.03 9.98 24.03 9.98 20.74 9.98 20.74" style="fill:#fff"/><polygon points="15.68 20.74 12.39 20.74 12.39 24.03 15.68 24.03 15.68 20.74 15.68 20.74" style="fill:#fff"/><polygon points="21.39 20.74 18.09 20.74 18.09 24.03 21.39 24.03 21.39 20.74 21.39 20.74" style="fill:#fff"/><polygon points="9.98 26.03 6.69 26.03 6.69 29.32 9.98 29.32 9.98 26.03 9.98 26.03" style="fill:#fff"/><polygon points="15.68 26.03 12.39 26.03 12.39 29.32 15.68 29.32 15.68 26.03 15.68 26.03" style="fill:#fff"/><polygon points="21.39 26.03 18.09 26.03 18.09 29.32 21.39 29.32 21.39 26.03 21.39 26.03" style="fill:#fff"/><path d="M38.59,21.72V7.28a1.7,1.7,0,0,0-1.7-1.7H32.08V4.45a1.7,1.7,0,1,0-3.4,0V5.58H10.44V4.45a1.7,1.7,0,1,0-3.4,0V5.58H2a1.7,1.7,0,0,0-1.7,1.7V35A1.7,1.7,0,0,0,2,36.69H24.43v0a10.53,10.53,0,1,0,14.16-15ZM3.74,9H7V10.1a1.7,1.7,0,0,0,3.4,0V9H28.68V10.1a1.7,1.7,0,0,0,3.4,0V9h3.11V15.6H3.74Zm0,24.33v-16H35.19v3.08a11,11,0,0,0-2.08-.2,10.43,10.43,0,0,0-6,1.9V20.74h-3.3V24H25A10.53,10.53,0,0,0,22.9,33.3Zm29.37,6.25A8.84,8.84,0,1,1,42,30.71,8.85,8.85,0,0,1,33.11,39.55Z" style="fill:#fff"/><path d="M39.47,30.71a.87.87,0,0,1-.88.88H33.11a.89.89,0,0,1-.88-.88V25.24a.88.88,0,1,1,1.76,0v4.59h4.6A.88.88,0,0,1,39.47,30.71Z" style="fill:#fff"/><path d="M33.2,31.59h-.09a.81.81,0,0,1-.62-.27.84.84,0,0,0,.62.26Z" style="fill:#fff"/></svg>