<svg id="detail" xmlns="http://www.w3.org/2000/svg" viewBox="0 0 44 44"><title>detail</title><path d="M42.31,5.08H1.69A1.69,1.69,0,0,0,0,6.77V37.23a1.69,1.69,0,0,0,1.69,1.69H42.31A1.69,1.69,0,0,0,44,37.23V6.77A1.69,1.69,0,0,0,42.31,5.08ZM40.61,26.71H24V8.46H40.61Zm-7.16,8.82H24V28.29h9.43Zm-12.57,0H14.59V28.29h6.29Zm0-27.08V26.71H3.38V8.46ZM3.38,28.29h8.07v7.25H3.38ZM35,35.54V28.29h5.59v7.25Z" style="fill:#fff"/><rect x="6.74" y="11" width="12.57" height="1.57" style="fill:#fff"/><rect x="6.74" y="18.86" width="12.57" height="1.57" style="fill:#fff"/><rect x="6.74" y="14.14" width="12.57" height="1.57" style="fill:#fff"/><rect x="6.74" y="22" width="12.57" height="1.57" style="fill:#fff"/></svg>