<svg id="display" xmlns="http://www.w3.org/2000/svg" viewBox="0 0 44 44"><title>display_icon</title><path d="M42.16,32.5H1.83A1.83,1.83,0,0,1,0,30.67V5A1.83,1.83,0,0,1,1.83,3.17H42.16A1.83,1.83,0,0,1,44,5V30.67a1.83,1.83,0,0,1-1.84,1.83ZM3.67,28.84H40.33v-22H3.67v22Z" style="fill:#fff"/><path d="M28.76,40.83H15.24a1.83,1.83,0,1,1,0-3.67H28.76a1.83,1.83,0,1,1,0,3.67Z" style="fill:#fff"/><path d="M17.34,40.29a1.83,1.83,0,0,1-1.83-1.83V31.05a1.83,1.83,0,1,1,3.67,0v7.41a1.83,1.83,0,0,1-1.83,1.83Z" style="fill:#fff"/><path d="M26.66,40.29a1.83,1.83,0,0,1-1.83-1.83V31.05a1.83,1.83,0,1,1,3.67,0v7.41a1.83,1.83,0,0,1-1.83,1.83Z" style="fill:#fff"/></svg>