<svg id="info" xmlns="http://www.w3.org/2000/svg" viewBox="0 0 44 44"><title>info_icon</title><path d="M21.86,15.59a2,2,0,0,1-1.33-.48A1.69,1.69,0,0,1,20,13.77a1.68,1.68,0,0,1,.56-1.3A1.91,1.91,0,0,1,21.86,12a1.93,1.93,0,0,1,1.28.46,1.65,1.65,0,0,1,.56,1.35,1.7,1.7,0,0,1-.54,1.34,1.88,1.88,0,0,1-1.29.48m1.83,3.83V30.14a2.39,2.39,0,0,1-.53,1.68,1.76,1.76,0,0,1-1.35.57,1.67,1.67,0,0,1-1.32-.58A2.47,2.47,0,0,1,20,30.14V19.53a2.38,2.38,0,0,1,.51-1.66,1.71,1.71,0,0,1,1.32-.56,1.78,1.78,0,0,1,1.35.56,2.16,2.16,0,0,1,.53,1.55" style="fill:#fff"/><path d="M21.89,43.5A21.5,21.5,0,0,1,6.7,6.8,21.5,21.5,0,0,1,37.11,37.2a21.38,21.38,0,0,1-15.21,6.3m0-39.35A17.85,17.85,0,0,0,9.28,34.62,17.85,17.85,0,1,0,34.52,9.38,17.73,17.73,0,0,0,21.9,4.15" style="fill:#fff"/></svg>