<svg id="language" xmlns="http://www.w3.org/2000/svg" viewBox="0 0 44 44"><title>language_icon</title><path d="M22,43.5A21.5,21.5,0,1,1,43.5,22,21.52,21.52,0,0,1,22,43.5ZM22,4.12A17.88,17.88,0,1,0,39.88,22,17.9,17.9,0,0,0,22,4.12Z" style="fill:#fff"/><path d="M22,42.6C15.22,42.6,9.7,33.36,9.7,22S15.22,1.41,22,1.41,34.29,10.64,34.29,22,28.78,42.6,22,42.6ZM22,3.22c-5.78,0-10.48,8.43-10.48,18.78S16.22,40.78,22,40.78,32.48,32.36,32.48,22,27.78,3.22,22,3.22Z" style="fill:#fff"/><path d="M22,42.6a.9.9,0,0,1-.91-.91V2.31A.9.9,0,0,1,22,1.41,20.59,20.59,0,0,1,22,42.6ZM22.9,3.24V40.76a18.78,18.78,0,0,0,0-37.53Z" style="fill:#fff"/><path d="M40.41,29.85H3.59a.91.91,0,0,1-.85-.59,20.37,20.37,0,0,1,0-14.52.91.91,0,0,1,.85-.59H40.41a.91.91,0,0,1,.85.59,20.34,20.34,0,0,1,0,14.52.91.91,0,0,1-.85.59ZM4.23,28H39.77a18.45,18.45,0,0,0,0-12.07H4.23A18.49,18.49,0,0,0,4.23,28Z" style="fill:#fff"/></svg>