<svg id="mouse" xmlns="http://www.w3.org/2000/svg" xmlns:xlink="http://www.w3.org/1999/xlink" viewBox="0 0 44 44"><defs><clipPath id="clip-path"><polygon points="26.94 20.62 29.12 14.45 30.87 5.33 28.23 5.83 22.8 4.3 18.92 7.24 9.96 3.31 29 -5.98 42.56 8.54 26.94 20.62" style="fill:none"/></clipPath></defs><title>mouse_icon</title><path d="M5,22.1a1.06,1.06,0,0,1,0-1.5l4.23-4.25a1.06,1.06,0,0,1,1.5,0l8.48,8.46h0a1.06,1.06,0,0,1,0,1.5L15,30.56a1.06,1.06,0,0,1-1.5,0L5,22.1Zm5-3.5L7.24,21.35l7,7,2.73-2.74-7-7Z" style="fill:#fff"/><path d="M24.18,5.35a1,1,0,0,1,0,1.36l-4.41,4.41a3.68,3.68,0,0,1,.77.48l4.33-4.44a1,1,0,0,1,1.36,1.36l-4.31,4.42.62.62,4.12-4.23A1,1,0,1,1,28,10.68l-4.15,4.26a6,6,0,0,1,.5.81l4-4a.86.86,0,0,1,1.27,0,1,1,0,0,1,0,1.36L24,18.8,22.73,20,19.5,23.26a2.38,2.38,0,0,1-1.39.66l-6.57-6.56a2.59,2.59,0,0,1,.22-.76l1.38-5a1,1,0,0,1,.26-.44l3.05-3.05a.91.91,0,1,1,1.29,1.29L16.5,10.62l-.22,1.26,6.54-6.54a1,1,0,0,1,1.36,0m1.5-1.5a3.09,3.09,0,0,0-4.36,0l-2.4,2.4a3.07,3.07,0,0,0-4,.34L11.9,9.64A3.12,3.12,0,0,0,11.09,11L9.76,15.89a4.74,4.74,0,0,0-.32,1.19,2.12,2.12,0,0,0,.6,1.79h0l6.56,6.56a2.12,2.12,0,0,0,1.78.6A4.48,4.48,0,0,0,21,24.76l3.23-3.23,1.23-1.23,5.41-5.49a3.09,3.09,0,0,0,0-4.36,3,3,0,0,0-.7-.52,3.08,3.08,0,0,0-1.85-2.51,3.08,3.08,0,0,0-.64-1.31,2.33,2.33,0,0,0-1.14-.53,3.07,3.07,0,0,0-.87-1.74Z" style="fill:#fff"/><g style="clip-path:url(#clip-path)"><path d="M18.34,16.84A9,9,0,0,1,16.4,14c-1.14-2.88,1-6.75,2.41-8.18l4.11-4.11a4.79,4.79,0,0,1,6.63,0l4,4a4.8,4.8,0,0,1,0,6.66l-4.1,4.1c-1.44,1.41-5.3,3.56-8.17,2.42a9,9,0,0,1-2.9-1.95Zm14-10.08L28.4,2.85a3.14,3.14,0,0,0-4.28,0L20,7c-1.32,1.35-2.78,4.51-2,6.37a7.43,7.43,0,0,0,3.92,3.91c1.84.73,5-.73,6.36-2.06l4.1-4.1a3.15,3.15,0,0,0,0-4.32Z" style="fill:#fff"/></g><path d="M37,25.09a1.16,1.16,0,0,1-.51-.12,5.58,5.58,0,0,1-3.22-3.78,7.76,7.76,0,0,1,1.65-6.1c.68-.86,1.4-1.67,2.1-2.44,2.18-2.42,4.06-4.51,3.51-7.11a3.24,3.24,0,0,0-2.21-2.48c-1.87-.62-4.3.1-6.35,1.88a1.16,1.16,0,1,1-1.53-1.76C33.1.82,36.32-.06,39,.84A5.56,5.56,0,0,1,42.76,5c.81,3.76-1.66,6.51-4.05,9.16-.67.75-1.37,1.53-2,2.33a5.5,5.5,0,0,0-1.21,4.14,3.31,3.31,0,0,0,2,2.21A1.17,1.17,0,0,1,37,25.09Z" style="fill:#fff"/><path d="M1.08,35.78h2l1.59,5.57,1.59-5.57h2v7.13H7.13V37.06H7L5.29,42.62H4.08L2.39,37.06H2.24v5.85H1.08Z" style="fill:#fff"/><path d="M9.62,39.38c0-2.38.68-3.71,2.9-3.71s2.89,1.32,2.89,3.71S14.75,43,12.52,43,9.62,41.78,9.62,39.38Zm4.6,0c0-1.77-.32-2.7-1.7-2.7s-1.71.94-1.71,2.7S11.14,42,12.52,42,14.22,41.19,14.22,39.38Z" style="fill:#fff"/><path d="M19.31,42c1,0,1.47-.43,1.47-1.38V35.78h1.17v4.83c0,1.72-.93,2.41-2.63,2.41s-2.61-.7-2.61-2.41V35.78h1.17v4.85C17.86,41.6,18.36,42,19.31,42Z" style="fill:#fff"/><path d="M27.68,36.84s-1.46-.17-2.06-.17c-.87,0-1.32.31-1.32.93s.37.82,1.59,1.15c1.5.42,2,.81,2,2A2.09,2.09,0,0,1,25.54,43a15.19,15.19,0,0,1-2.33-.28l.11-.93s1.41.19,2.14.19,1.29-.4,1.29-1.14-.32-.81-1.41-1.07c-1.54-.4-2.21-.86-2.21-2.1,0-1.44.95-2,2.37-2a15.76,15.76,0,0,1,2.26.25Z" style="fill:#fff"/><path d="M29.18,35.78h4.49v1H30.33v2H33v1H30.33v2.08h3.34v1H29.18Z" style="fill:#fff"/></svg>