<svg id="mute" xmlns="http://www.w3.org/2000/svg" viewBox="0 0 44 44"><title>mute_icon</title><path d="M17.92,40.48A2,2,0,0,1,16.68,40L7.59,32.77H2a2,2,0,0,1-2-2V13.22a2,2,0,0,1,2-2h5.6L16.68,4A2,2,0,0,1,19.9,5.5v33a2,2,0,0,1-2,2ZM4,28.8H8.29a2,2,0,0,1,1.24.44l6.41,5.13V9.64L9.52,14.77a2,2,0,0,1-1.24.44H4V28.8Z" style="fill:#fff"/><path d="M42,32.41a2,2,0,0,1-1.4-.58L23.77,15a2,2,0,0,1,2.81-2.81L43.42,29A2,2,0,0,1,42,32.41Z" style="fill:#fff"/><path d="M25.29,32.52a2,2,0,0,1-1.42-3.37L40.48,12.08a2,2,0,0,1,2.85,2.77L26.71,31.92a2,2,0,0,1-1.42.6Z" style="fill:#fff"/></svg>