<svg id="network" xmlns="http://www.w3.org/2000/svg" viewBox="0 0 44 44"><title>network_icon</title><path d="M8.22,28.71A6.71,6.71,0,1,1,14.93,22a6.72,6.72,0,0,1-6.71,6.71Zm0-10A3.25,3.25,0,1,0,11.47,22a3.25,3.25,0,0,0-3.25-3.25Z" style="fill:#41cd52"/><path d="M35.78,13.92a6.71,6.71,0,1,1,6.71-6.71,6.72,6.72,0,0,1-6.71,6.71Zm0-10A3.25,3.25,0,1,0,39,7.21,3.25,3.25,0,0,0,35.78,4Z" style="fill:#41cd52"/><path d="M35.78,43.5a6.71,6.71,0,1,1,6.71-6.71,6.72,6.72,0,0,1-6.71,6.71Zm0-10A3.25,3.25,0,1,0,39,36.79a3.25,3.25,0,0,0-3.25-3.25Z" style="fill:#41cd52"/><path d="M30.66,35.89a1.73,1.73,0,0,1-.86-.23L12.12,25.46a1.73,1.73,0,0,1,1.73-3L31.52,32.66a1.73,1.73,0,0,1-.87,3.23Z" style="fill:#41cd52"/><path d="M13,21.77a1.73,1.73,0,0,1-.87-3.23L29.79,8.34a1.73,1.73,0,1,1,1.73,3L13.85,21.54a1.71,1.71,0,0,1-.86.23Z" style="fill:#41cd52"/></svg>