<svg id="pause" xmlns="http://www.w3.org/2000/svg" viewBox="0 0 44 44"><title>pause_icon</title><path d="M15.51,43.5H9.76a4.65,4.65,0,0,1-4.64-4.64V5.14A4.65,4.65,0,0,1,9.76.5h5.75a4.65,4.65,0,0,1,4.64,4.64V38.86a4.65,4.65,0,0,1-4.64,4.64ZM9.76,4.55a.6.6,0,0,0-.59.59V38.86a.6.6,0,0,0,.59.59h5.75a.6.6,0,0,0,.59-.59V5.14a.6.6,0,0,0-.59-.59Z" style="fill:#fff"/><path d="M34.24,43.5H28.49a4.65,4.65,0,0,1-4.64-4.64V5.14A4.65,4.65,0,0,1,28.49.5h5.75a4.65,4.65,0,0,1,4.64,4.64V38.86a4.65,4.65,0,0,1-4.64,4.64ZM28.49,4.55a.6.6,0,0,0-.59.59V38.86a.6.6,0,0,0,.59.59h5.75a.6.6,0,0,0,.59-.59V5.14a.6.6,0,0,0-.59-.59Z" style="fill:#fff"/></svg>