<svg id="settings" xmlns="http://www.w3.org/2000/svg" viewBox="0 0 44 44"><title>settings_icon</title><path d="M41,17.82H35a14.73,14.73,0,0,0-1.47-3.24l4-4a2.38,2.38,0,0,0,0-3.38L35.83,5.53a2.39,2.39,0,0,0-3.38,0l-4,4a14.34,14.34,0,0,0-3.53-1.43V2.89A2.39,2.39,0,0,0,22.49.5H20.1a2.39,2.39,0,0,0-2.39,2.39V8.14a14,14,0,0,0-3.84,1.61L10.49,6.37a2.4,2.4,0,0,0-3.38,0L5.42,8.06a2.4,2.4,0,0,0,0,3.38l3.44,3.44A14.24,14.24,0,0,0,7.28,19H2.79A2.39,2.39,0,0,0,.39,21.4v2.39a2.39,2.39,0,0,0,2.39,2.38h4.8a14,14,0,0,0,1.93,4L6.27,33.4a2.4,2.4,0,0,0,0,3.38L8,38.47a2.4,2.4,0,0,0,3.38,0L15,34.84a13.89,13.89,0,0,0,3.94,1.27v5A2.4,2.4,0,0,0,21.3,43.5h2.39a2.4,2.4,0,0,0,2.39-2.39V35.5a14,14,0,0,0,3.38-1.72l3.85,3.85a2.4,2.4,0,0,0,3.38,0l1.69-1.69a2.38,2.38,0,0,0,0-3.38l-4.21-4.22A14.15,14.15,0,0,0,35.31,25H41a2.39,2.39,0,0,0,2.39-2.39V20.21A2.4,2.4,0,0,0,41,17.82ZM21.3,31.5A9.5,9.5,0,1,1,30.8,22,9.5,9.5,0,0,1,21.3,31.5Z" style="fill:#fff"/></svg>