<svg id="touch" xmlns="http://www.w3.org/2000/svg" viewBox="0 0 44 44"><title>touch_icon</title><path d="M10.64,21.23a1.06,1.06,0,0,1,0-1.5l4.23-4.25a1.06,1.06,0,0,1,1.5,0l8.48,8.46h0a1.06,1.06,0,0,1,0,1.5l-4.24,4.25a1.06,1.06,0,0,1-1.5,0l-8.47-8.45Zm5-3.5-2.74,2.74,7,7,2.73-2.74-7-7Z" style="fill:#fff"/><path d="M29.83,4.48a1,1,0,0,1,0,1.36l-4.41,4.41a3.68,3.68,0,0,1,.77.48l.44-.44A1,1,0,0,1,28,11.64l-.42.42.62.62.23-.23a1,1,0,1,1,1.36,1.36l-.25.25a3.68,3.68,0,0,1,.48.76,1,1,0,0,1,1.36,1.36l-1.74,1.74-1.23,1.23-3.23,3.23a2.38,2.38,0,0,1-1.39.66L17.2,16.49a2.52,2.52,0,0,1,.22-.76l1.37-5a1,1,0,0,1,.26-.44l3.05-3.05A.91.91,0,1,1,23.4,8.51L22.15,9.75,21.93,11l6.54-6.54a1,1,0,0,1,1.36,0M31.33,3A3.09,3.09,0,0,0,27,3l-2.4,2.4a3.08,3.08,0,0,0-4,.34L17.55,8.77a3.13,3.13,0,0,0-.81,1.39L15.42,15a4.74,4.74,0,0,0-.32,1.19A2.12,2.12,0,0,0,15.7,18h0l6.57,6.56a2.11,2.11,0,0,0,1.78.6,4.49,4.49,0,0,0,2.61-1.27l3.23-3.23,1.23-1.23,1.74-1.74a3.09,3.09,0,0,0,0-4.36,3,3,0,0,0-.7-.52,3.08,3.08,0,0,0-1.85-2.51A3.09,3.09,0,0,0,29.68,9l1.65-1.65a3.09,3.09,0,0,0,0-4.36Z" style="fill:#fff"/><path d="M6.65,34.69h5.2v1h-2v6.1H8.68v-6.1h-2Z" style="fill:#fff"/><path d="M12.38,38.29c0-2.38.68-3.71,2.9-3.71s2.89,1.32,2.89,3.71-.67,3.64-2.89,3.64S12.38,40.69,12.38,38.29Zm4.6,0c0-1.77-.32-2.7-1.7-2.7s-1.71.94-1.71,2.7.32,2.63,1.71,2.63S17,40.1,17,38.29Z" style="fill:#fff"/><path d="M22.07,40.92c1,0,1.47-.43,1.47-1.38V34.69H24.7v4.83c0,1.72-.93,2.41-2.63,2.41s-2.61-.7-2.61-2.41V34.69h1.17v4.85C20.62,40.5,21.12,40.92,22.07,40.92Z" style="fill:#fff"/><path d="M30.71,41.7a11.23,11.23,0,0,1-2,.23c-2.17,0-2.67-1.24-2.67-3.67s.54-3.68,2.67-3.68a10,10,0,0,1,2,.26l0,.94a13.25,13.25,0,0,0-1.84-.17c-1.31,0-1.63.64-1.63,2.65s.26,2.64,1.66,2.64a13.87,13.87,0,0,0,1.81-.16Z" style="fill:#fff"/><path d="M36.18,38.73H33.1v3.08H31.95V34.69H33.1v3h3.08v-3h1.17v7.13H36.18Z" style="fill:#fff"/></svg>