<svg id="volume" xmlns="http://www.w3.org/2000/svg" viewBox="0 0 44 44"><title>volume_icon</title><path d="M33.13,40.13a2,2,0,0,1-1.4-3.39,20.87,20.87,0,0,0,0-29.48,2,2,0,1,1,2.81-2.81,24.85,24.85,0,0,1,0,35.09,2,2,0,0,1-1.4.58Z" style="fill:#fff"/><path d="M27.38,34.38A2,2,0,0,1,26,31a12.72,12.72,0,0,0,0-18,2,2,0,0,1,2.81-2.81,16.69,16.69,0,0,1,0,23.59,2,2,0,0,1-1.4.58Z" style="fill:#fff"/><path d="M20.13,40.48A2,2,0,0,1,18.89,40L9.8,32.77H4.19a2,2,0,0,1-2-2V13.22a2,2,0,0,1,2-2h5.6L18.89,4A2,2,0,0,1,22.12,5.5v33a2,2,0,0,1-2,2ZM6.18,28.8h4.32a2,2,0,0,1,1.24.44l6.41,5.13V9.64l-6.42,5.14a2,2,0,0,1-1.24.44H6.18V28.8Z" style="fill:#fff"/></svg>